<?xml version="1.0" encoding="UTF-8" standalone="no"?>
<!DOCTYPE svg PUBLIC "-//W3C//DTD SVG 1.1//EN"
 "http://www.w3.org/Graphics/SVG/1.1/DTD/svg11.dtd">
<!-- Generated by graphviz version 2.47.1 (20210417.1919)
 -->
<!-- Title: unix Pages: 1 -->
<svg width="432pt" height="341pt"
 viewBox="0.00 0.00 432.00 341.21" xmlns="http://www.w3.org/2000/svg" xmlns:xlink="http://www.w3.org/1999/xlink">
<g id="graph0" class="graph" transform="scale(0.45 0.45) rotate(0) translate(4 760)">
<title>unix</title>
<polygon fill="white" stroke="transparent" points="-4,4 -4,-760 963.29,-760 963.29,4 -4,4"/>
<!-- 5th Edition -->
<g id="node1" class="node">
<title>5th Edition</title>
<ellipse fill="#b2dfee" stroke="#b2dfee" cx="512.9" cy="-738" rx="50.09" ry="18"/>
<text text-anchor="middle" x="512.9" y="-734.3" font-family="Times,serif" font-size="14.00">5th Edition</text>
</g>
<!-- 6th Edition -->
<g id="node2" class="node">
<title>6th Edition</title>
<ellipse fill="#b2dfee" stroke="#b2dfee" cx="418.9" cy="-666" rx="50.09" ry="18"/>
<text text-anchor="middle" x="418.9" y="-662.3" font-family="Times,serif" font-size="14.00">6th Edition</text>
</g>
<!-- 5th Edition&#45;&gt;6th Edition -->
<g id="edge1" class="edge">
<title>5th Edition&#45;&gt;6th Edition</title>
<path fill="none" stroke="black" d="M492.04,-721.46C479.01,-711.77 462.07,-699.15 447.77,-688.5"/>
<polygon fill="black" stroke="black" points="449.81,-685.66 439.7,-682.49 445.63,-691.27 449.81,-685.66"/>
</g>
<!-- PWB 1.0 -->
<g id="node3" class="node">
<title>PWB 1.0</title>
<ellipse fill="#b2dfee" stroke="#b2dfee" cx="667.9" cy="-666" rx="44.39" ry="18"/>
<text text-anchor="middle" x="667.9" y="-662.3" font-family="Times,serif" font-size="14.00">PWB 1.0</text>
</g>
<!-- 5th Edition&#45;&gt;PWB 1.0 -->
<g id="edge2" class="edge">
<title>5th Edition&#45;&gt;PWB 1.0</title>
<path fill="none" stroke="black" d="M542.78,-723.5C567.62,-712.29 603.11,-696.26 629.95,-684.14"/>
<polygon fill="black" stroke="black" points="631.74,-687.17 639.41,-679.86 628.86,-680.79 631.74,-687.17"/>
</g>
<!-- LSX -->
<g id="node4" class="node">
<title>LSX</title>
<ellipse fill="#b2dfee" stroke="#b2dfee" cx="578.9" cy="-594" rx="27.1" ry="18"/>
<text text-anchor="middle" x="578.9" y="-590.3" font-family="Times,serif" font-size="14.00">LSX</text>
</g>
<!-- 6th Edition&#45;&gt;LSX -->
<g id="edge3" class="edge">
<title>6th Edition&#45;&gt;LSX</title>
<path fill="none" stroke="black" d="M450.38,-651.93C475.53,-641.39 511.62,-626.07 542.9,-612 544.5,-611.28 546.14,-610.53 547.8,-609.78"/>
<polygon fill="black" stroke="black" points="549.66,-612.77 557.26,-605.38 546.71,-606.42 549.66,-612.77"/>
</g>
<!-- 1 BSD -->
<g id="node5" class="node">
<title>1 BSD</title>
<ellipse fill="#b2dfee" stroke="#b2dfee" cx="120.9" cy="-594" rx="34.39" ry="18"/>
<text text-anchor="middle" x="120.9" y="-590.3" font-family="Times,serif" font-size="14.00">1 BSD</text>
</g>
<!-- 6th Edition&#45;&gt;1 BSD -->
<g id="edge4" class="edge">
<title>6th Edition&#45;&gt;1 BSD</title>
<path fill="none" stroke="black" d="M378.09,-655.41C321.21,-642.05 218.71,-617.98 161.79,-604.61"/>
<polygon fill="black" stroke="black" points="162.25,-601.12 151.72,-602.24 160.65,-607.93 162.25,-601.12"/>
</g>
<!-- Mini Unix -->
<g id="node6" class="node">
<title>Mini Unix</title>
<ellipse fill="#b2dfee" stroke="#b2dfee" cx="357.9" cy="-594" rx="48.19" ry="18"/>
<text text-anchor="middle" x="357.9" y="-590.3" font-family="Times,serif" font-size="14.00">Mini Unix</text>
</g>
<!-- 6th Edition&#45;&gt;Mini Unix -->
<g id="edge5" class="edge">
<title>6th Edition&#45;&gt;Mini Unix</title>
<path fill="none" stroke="black" d="M404.44,-648.41C396.84,-639.69 387.39,-628.85 378.99,-619.21"/>
<polygon fill="black" stroke="black" points="381.46,-616.71 372.25,-611.47 376.18,-621.31 381.46,-616.71"/>
</g>
<!-- Wollongong -->
<g id="node7" class="node">
<title>Wollongong</title>
<ellipse fill="#b2dfee" stroke="#b2dfee" cx="478.9" cy="-594" rx="54.69" ry="18"/>
<text text-anchor="middle" x="478.9" y="-590.3" font-family="Times,serif" font-size="14.00">Wollongong</text>
</g>
<!-- 6th Edition&#45;&gt;Wollongong -->
<g id="edge6" class="edge">
<title>6th Edition&#45;&gt;Wollongong</title>
<path fill="none" stroke="black" d="M433.12,-648.41C440.59,-639.69 449.89,-628.85 458.15,-619.21"/>
<polygon fill="black" stroke="black" points="460.93,-621.34 464.78,-611.47 455.61,-616.78 460.93,-621.34"/>
</g>
<!-- Interdata -->
<g id="node8" class="node">
<title>Interdata</title>
<ellipse fill="#b2dfee" stroke="#b2dfee" cx="249.9" cy="-594" rx="42.49" ry="18"/>
<text text-anchor="middle" x="249.9" y="-590.3" font-family="Times,serif" font-size="14.00">Interdata</text>
</g>
<!-- 6th Edition&#45;&gt;Interdata -->
<g id="edge7" class="edge">
<title>6th Edition&#45;&gt;Interdata</title>
<path fill="none" stroke="black" d="M387.11,-651.83C359.07,-640.22 318.14,-623.26 288.28,-610.9"/>
<polygon fill="black" stroke="black" points="289.58,-607.65 279,-607.06 286.9,-614.12 289.58,-607.65"/>
</g>
<!-- PWB 1.2 -->
<g id="node28" class="node">
<title>PWB 1.2</title>
<ellipse fill="#b2dfee" stroke="#b2dfee" cx="667.9" cy="-594" rx="44.39" ry="18"/>
<text text-anchor="middle" x="667.9" y="-590.3" font-family="Times,serif" font-size="14.00">PWB 1.2</text>
</g>
<!-- PWB 1.0&#45;&gt;PWB 1.2 -->
<g id="edge31" class="edge">
<title>PWB 1.0&#45;&gt;PWB 1.2</title>
<path fill="none" stroke="black" d="M667.9,-647.7C667.9,-639.98 667.9,-630.71 667.9,-622.11"/>
<polygon fill="black" stroke="black" points="671.4,-622.1 667.9,-612.1 664.4,-622.1 671.4,-622.1"/>
</g>
<!-- USG 1.0 -->
<g id="node29" class="node">
<title>USG 1.0</title>
<ellipse fill="#b2dfee" stroke="#b2dfee" cx="771.9" cy="-594" rx="42.49" ry="18"/>
<text text-anchor="middle" x="771.9" y="-590.3" font-family="Times,serif" font-size="14.00">USG 1.0</text>
</g>
<!-- PWB 1.0&#45;&gt;USG 1.0 -->
<g id="edge32" class="edge">
<title>PWB 1.0&#45;&gt;USG 1.0</title>
<path fill="none" stroke="black" d="M689.7,-650.33C704.81,-640.15 725.14,-626.47 741.8,-615.26"/>
<polygon fill="black" stroke="black" points="743.78,-618.14 750.12,-609.65 739.87,-612.34 743.78,-618.14"/>
</g>
<!-- 2 BSD -->
<g id="node19" class="node">
<title>2 BSD</title>
<ellipse fill="#b2dfee" stroke="#b2dfee" cx="77.9" cy="-234" rx="34.39" ry="18"/>
<text text-anchor="middle" x="77.9" y="-230.3" font-family="Times,serif" font-size="14.00">2 BSD</text>
</g>
<!-- 1 BSD&#45;&gt;2 BSD -->
<g id="edge19" class="edge">
<title>1 BSD&#45;&gt;2 BSD</title>
<path fill="none" stroke="black" d="M114.77,-576.21C105.74,-549.9 89.9,-497.18 89.9,-451 89.9,-451 89.9,-451 89.9,-377 89.9,-336.85 85.08,-290.55 81.55,-262.02"/>
<polygon fill="black" stroke="black" points="85.01,-261.49 80.27,-252.01 78.06,-262.37 85.01,-261.49"/>
</g>
<!-- Unix/TS 3.0 -->
<g id="node9" class="node">
<title>Unix/TS 3.0</title>
<ellipse fill="#b2dfee" stroke="#b2dfee" cx="601.9" cy="-378" rx="54.69" ry="18"/>
<text text-anchor="middle" x="601.9" y="-374.3" font-family="Times,serif" font-size="14.00">Unix/TS 3.0</text>
</g>
<!-- Interdata&#45;&gt;Unix/TS 3.0 -->
<g id="edge8" class="edge">
<title>Interdata&#45;&gt;Unix/TS 3.0</title>
<path fill="none" stroke="black" d="M273.27,-578.79C334.08,-541.82 497.46,-442.49 568.33,-399.41"/>
<polygon fill="black" stroke="black" points="570.17,-402.38 576.9,-394.2 566.54,-396.4 570.17,-402.38"/>
</g>
<!-- PWB 2.0 -->
<g id="node10" class="node">
<title>PWB 2.0</title>
<ellipse fill="#b2dfee" stroke="#b2dfee" cx="548.9" cy="-522" rx="44.39" ry="18"/>
<text text-anchor="middle" x="548.9" y="-518.3" font-family="Times,serif" font-size="14.00">PWB 2.0</text>
</g>
<!-- Interdata&#45;&gt;PWB 2.0 -->
<g id="edge9" class="edge">
<title>Interdata&#45;&gt;PWB 2.0</title>
<path fill="none" stroke="black" d="M281.26,-581.81C287.71,-579.72 294.48,-577.67 300.9,-576 384.08,-554.36 407.34,-560.11 490.9,-540 495.5,-538.89 500.28,-537.65 505.04,-536.35"/>
<polygon fill="black" stroke="black" points="506.02,-539.71 514.7,-533.63 504.12,-532.97 506.02,-539.71"/>
</g>
<!-- 7th Edition -->
<g id="node11" class="node">
<title>7th Edition</title>
<ellipse fill="#b2dfee" stroke="#b2dfee" cx="249.9" cy="-522" rx="50.09" ry="18"/>
<text text-anchor="middle" x="249.9" y="-518.3" font-family="Times,serif" font-size="14.00">7th Edition</text>
</g>
<!-- Interdata&#45;&gt;7th Edition -->
<g id="edge10" class="edge">
<title>Interdata&#45;&gt;7th Edition</title>
<path fill="none" stroke="black" d="M249.9,-575.7C249.9,-567.98 249.9,-558.71 249.9,-550.11"/>
<polygon fill="black" stroke="black" points="253.4,-550.1 249.9,-540.1 246.4,-550.1 253.4,-550.1"/>
</g>
<!-- TS 4.0 -->
<g id="node38" class="node">
<title>TS 4.0</title>
<ellipse fill="#b2dfee" stroke="#b2dfee" cx="684.9" cy="-234" rx="34.39" ry="18"/>
<text text-anchor="middle" x="684.9" y="-230.3" font-family="Times,serif" font-size="14.00">TS 4.0</text>
</g>
<!-- Unix/TS 3.0&#45;&gt;TS 4.0 -->
<g id="edge44" class="edge">
<title>Unix/TS 3.0&#45;&gt;TS 4.0</title>
<path fill="none" stroke="black" d="M611.74,-360.15C626.24,-335.36 653.41,-288.88 670.24,-260.07"/>
<polygon fill="black" stroke="black" points="673.29,-261.79 675.32,-251.39 667.25,-258.25 673.29,-261.79"/>
</g>
<!-- PWB 2.0&#45;&gt;Unix/TS 3.0 -->
<g id="edge42" class="edge">
<title>PWB 2.0&#45;&gt;Unix/TS 3.0</title>
<path fill="none" stroke="black" d="M545.71,-503.85C543.08,-485.35 541.16,-455.4 550.9,-432 555.68,-420.51 564.21,-410.09 572.94,-401.59"/>
<polygon fill="black" stroke="black" points="575.55,-403.95 580.58,-394.63 570.83,-398.77 575.55,-403.95"/>
</g>
<!-- 8th Edition -->
<g id="node12" class="node">
<title>8th Edition</title>
<ellipse fill="#b2dfee" stroke="#b2dfee" cx="448.9" cy="-162" rx="50.09" ry="18"/>
<text text-anchor="middle" x="448.9" y="-158.3" font-family="Times,serif" font-size="14.00">8th Edition</text>
</g>
<!-- 7th Edition&#45;&gt;8th Edition -->
<g id="edge11" class="edge">
<title>7th Edition&#45;&gt;8th Edition</title>
<path fill="none" stroke="black" d="M292.96,-512.73C337.45,-503.31 402.76,-486.79 419.9,-468 447.15,-438.12 438.9,-419.45 438.9,-379 438.9,-379 438.9,-379 438.9,-305 438.9,-264.9 442.92,-218.58 445.86,-190.04"/>
<polygon fill="black" stroke="black" points="449.35,-190.34 446.92,-180.02 442.38,-189.6 449.35,-190.34"/>
</g>
<!-- 32V -->
<g id="node13" class="node">
<title>32V</title>
<ellipse fill="#b2dfee" stroke="#b2dfee" cx="383.9" cy="-450" rx="27" ry="18"/>
<text text-anchor="middle" x="383.9" y="-446.3" font-family="Times,serif" font-size="14.00">32V</text>
</g>
<!-- 7th Edition&#45;&gt;32V -->
<g id="edge12" class="edge">
<title>7th Edition&#45;&gt;32V</title>
<path fill="none" stroke="black" d="M277.01,-506.83C299.46,-495.11 331.31,-478.47 354.39,-466.41"/>
<polygon fill="black" stroke="black" points="356.14,-469.45 363.39,-461.71 352.9,-463.24 356.14,-469.45"/>
</g>
<!-- V7M -->
<g id="node14" class="node">
<title>V7M</title>
<ellipse fill="#b2dfee" stroke="#b2dfee" cx="29.9" cy="-378" rx="29.8" ry="18"/>
<text text-anchor="middle" x="29.9" y="-374.3" font-family="Times,serif" font-size="14.00">V7M</text>
</g>
<!-- 7th Edition&#45;&gt;V7M -->
<g id="edge13" class="edge">
<title>7th Edition&#45;&gt;V7M</title>
<path fill="none" stroke="black" d="M214.07,-509.4C188.39,-500.23 153.59,-485.97 125.9,-468 96.91,-449.19 68.49,-421.32 50.19,-401.8"/>
<polygon fill="black" stroke="black" points="52.58,-399.23 43.23,-394.25 47.43,-403.97 52.58,-399.23"/>
</g>
<!-- Ultrix&#45;11 -->
<g id="node15" class="node">
<title>Ultrix&#45;11</title>
<ellipse fill="#b2dfee" stroke="#b2dfee" cx="106.9" cy="-90" rx="43.59" ry="18"/>
<text text-anchor="middle" x="106.9" y="-86.3" font-family="Times,serif" font-size="14.00">Ultrix&#45;11</text>
</g>
<!-- 7th Edition&#45;&gt;Ultrix&#45;11 -->
<g id="edge14" class="edge">
<title>7th Edition&#45;&gt;Ultrix&#45;11</title>
<path fill="none" stroke="black" d="M215.15,-508.91C195.73,-500.41 172.73,-487.1 158.9,-468 135.17,-435.24 139.9,-419.45 139.9,-379 139.9,-379 139.9,-379 139.9,-233 139.9,-191.97 126.67,-145.97 116.96,-117.74"/>
<polygon fill="black" stroke="black" points="120.21,-116.45 113.58,-108.19 113.62,-118.78 120.21,-116.45"/>
</g>
<!-- Xenix -->
<g id="node16" class="node">
<title>Xenix</title>
<ellipse fill="#b2dfee" stroke="#b2dfee" cx="199.9" cy="-450" rx="32.49" ry="18"/>
<text text-anchor="middle" x="199.9" y="-446.3" font-family="Times,serif" font-size="14.00">Xenix</text>
</g>
<!-- 7th Edition&#45;&gt;Xenix -->
<g id="edge15" class="edge">
<title>7th Edition&#45;&gt;Xenix</title>
<path fill="none" stroke="black" d="M238.05,-504.41C231.86,-495.74 224.16,-484.97 217.31,-475.38"/>
<polygon fill="black" stroke="black" points="219.98,-473.09 211.32,-466.99 214.28,-477.16 219.98,-473.09"/>
</g>
<!-- UniPlus+ -->
<g id="node17" class="node">
<title>UniPlus+</title>
<ellipse fill="#b2dfee" stroke="#b2dfee" cx="294.9" cy="-450" rx="44.39" ry="18"/>
<text text-anchor="middle" x="294.9" y="-446.3" font-family="Times,serif" font-size="14.00">UniPlus+</text>
</g>
<!-- 7th Edition&#45;&gt;UniPlus+ -->
<g id="edge16" class="edge">
<title>7th Edition&#45;&gt;UniPlus+</title>
<path fill="none" stroke="black" d="M260.56,-504.41C265.92,-496.08 272.53,-485.8 278.51,-476.49"/>
<polygon fill="black" stroke="black" points="281.53,-478.26 284,-467.96 275.65,-474.48 281.53,-478.26"/>
</g>
<!-- 9th Edition -->
<g id="node18" class="node">
<title>9th Edition</title>
<ellipse fill="#b2dfee" stroke="#b2dfee" cx="525.9" cy="-90" rx="50.09" ry="18"/>
<text text-anchor="middle" x="525.9" y="-86.3" font-family="Times,serif" font-size="14.00">9th Edition</text>
</g>
<!-- 8th Edition&#45;&gt;9th Edition -->
<g id="edge18" class="edge">
<title>8th Edition&#45;&gt;9th Edition</title>
<path fill="none" stroke="black" d="M466.37,-145.12C476.54,-135.87 489.53,-124.07 500.77,-113.84"/>
<polygon fill="black" stroke="black" points="503.18,-116.38 508.23,-107.06 498.47,-111.2 503.18,-116.38"/>
</g>
<!-- 3 BSD -->
<g id="node22" class="node">
<title>3 BSD</title>
<ellipse fill="#b2dfee" stroke="#b2dfee" cx="372.9" cy="-378" rx="34.39" ry="18"/>
<text text-anchor="middle" x="372.9" y="-374.3" font-family="Times,serif" font-size="14.00">3 BSD</text>
</g>
<!-- 32V&#45;&gt;3 BSD -->
<g id="edge23" class="edge">
<title>32V&#45;&gt;3 BSD</title>
<path fill="none" stroke="black" d="M381.23,-432.05C380.02,-424.35 378.56,-415.03 377.2,-406.36"/>
<polygon fill="black" stroke="black" points="380.62,-405.61 375.61,-396.28 373.71,-406.7 380.62,-405.61"/>
</g>
<!-- V7M&#45;&gt;Ultrix&#45;11 -->
<g id="edge17" class="edge">
<title>V7M&#45;&gt;Ultrix&#45;11</title>
<path fill="none" stroke="black" d="M27.73,-359.66C24.57,-329.7 20.53,-266.57 34.9,-216 45.63,-178.24 70.21,-139.86 87.66,-115.77"/>
<polygon fill="black" stroke="black" points="90.59,-117.69 93.73,-107.57 84.97,-113.53 90.59,-117.69"/>
</g>
<!-- 2.8 BSD -->
<g id="node20" class="node">
<title>2.8 BSD</title>
<ellipse fill="#b2dfee" stroke="#b2dfee" cx="209.9" cy="-162" rx="41.69" ry="18"/>
<text text-anchor="middle" x="209.9" y="-158.3" font-family="Times,serif" font-size="14.00">2.8 BSD</text>
</g>
<!-- 2 BSD&#45;&gt;2.8 BSD -->
<g id="edge20" class="edge">
<title>2 BSD&#45;&gt;2.8 BSD</title>
<path fill="none" stroke="black" d="M101.19,-220.65C121.84,-209.7 152.26,-193.57 175.67,-181.15"/>
<polygon fill="black" stroke="black" points="177.39,-184.2 184.59,-176.42 174.11,-178.02 177.39,-184.2"/>
</g>
<!-- 2.8 BSD&#45;&gt;Ultrix&#45;11 -->
<g id="edge21" class="edge">
<title>2.8 BSD&#45;&gt;Ultrix&#45;11</title>
<path fill="none" stroke="black" d="M188.56,-146.5C173.6,-136.33 153.41,-122.61 136.85,-111.36"/>
<polygon fill="black" stroke="black" points="138.8,-108.45 128.57,-105.73 134.87,-114.24 138.8,-108.45"/>
</g>
<!-- 2.9 BSD -->
<g id="node21" class="node">
<title>2.9 BSD</title>
<ellipse fill="#b2dfee" stroke="#b2dfee" cx="209.9" cy="-90" rx="41.69" ry="18"/>
<text text-anchor="middle" x="209.9" y="-86.3" font-family="Times,serif" font-size="14.00">2.9 BSD</text>
</g>
<!-- 2.8 BSD&#45;&gt;2.9 BSD -->
<g id="edge22" class="edge">
<title>2.8 BSD&#45;&gt;2.9 BSD</title>
<path fill="none" stroke="black" d="M209.9,-143.7C209.9,-135.98 209.9,-126.71 209.9,-118.11"/>
<polygon fill="black" stroke="black" points="213.4,-118.1 209.9,-108.1 206.4,-118.1 213.4,-118.1"/>
</g>
<!-- 4 BSD -->
<g id="node23" class="node">
<title>4 BSD</title>
<ellipse fill="#b2dfee" stroke="#b2dfee" cx="360.9" cy="-306" rx="34.39" ry="18"/>
<text text-anchor="middle" x="360.9" y="-302.3" font-family="Times,serif" font-size="14.00">4 BSD</text>
</g>
<!-- 3 BSD&#45;&gt;4 BSD -->
<g id="edge24" class="edge">
<title>3 BSD&#45;&gt;4 BSD</title>
<path fill="none" stroke="black" d="M369.99,-360.05C368.67,-352.35 367.07,-343.03 365.59,-334.36"/>
<polygon fill="black" stroke="black" points="369,-333.54 363.86,-324.28 362.1,-334.72 369,-333.54"/>
</g>
<!-- 4.1 BSD -->
<g id="node24" class="node">
<title>4.1 BSD</title>
<ellipse fill="#b2dfee" stroke="#b2dfee" cx="358.9" cy="-234" rx="41.69" ry="18"/>
<text text-anchor="middle" x="358.9" y="-230.3" font-family="Times,serif" font-size="14.00">4.1 BSD</text>
</g>
<!-- 4 BSD&#45;&gt;4.1 BSD -->
<g id="edge25" class="edge">
<title>4 BSD&#45;&gt;4.1 BSD</title>
<path fill="none" stroke="black" d="M360.4,-287.7C360.18,-279.98 359.92,-270.71 359.67,-262.11"/>
<polygon fill="black" stroke="black" points="363.17,-262 359.39,-252.1 356.17,-262.2 363.17,-262"/>
</g>
<!-- 4.1 BSD&#45;&gt;8th Edition -->
<g id="edge28" class="edge">
<title>4.1 BSD&#45;&gt;8th Edition</title>
<path fill="none" stroke="black" d="M378.43,-217.81C390.76,-208.22 406.89,-195.67 420.61,-185"/>
<polygon fill="black" stroke="black" points="423.04,-187.55 428.78,-178.64 418.74,-182.02 423.04,-187.55"/>
</g>
<!-- 4.1 BSD&#45;&gt;2.8 BSD -->
<g id="edge27" class="edge">
<title>4.1 BSD&#45;&gt;2.8 BSD</title>
<path fill="none" stroke="black" d="M331.57,-220.16C307.62,-208.91 272.64,-192.48 246.32,-180.11"/>
<polygon fill="black" stroke="black" points="247.59,-176.84 237.05,-175.76 244.62,-183.18 247.59,-176.84"/>
</g>
<!-- 4.2 BSD -->
<g id="node25" class="node">
<title>4.2 BSD</title>
<ellipse fill="#b2dfee" stroke="#b2dfee" cx="338.9" cy="-162" rx="41.69" ry="18"/>
<text text-anchor="middle" x="338.9" y="-158.3" font-family="Times,serif" font-size="14.00">4.2 BSD</text>
</g>
<!-- 4.1 BSD&#45;&gt;4.2 BSD -->
<g id="edge26" class="edge">
<title>4.1 BSD&#45;&gt;4.2 BSD</title>
<path fill="none" stroke="black" d="M354.06,-216.05C351.83,-208.26 349.13,-198.82 346.63,-190.08"/>
<polygon fill="black" stroke="black" points="349.95,-188.93 343.83,-180.28 343.22,-190.85 349.95,-188.93"/>
</g>
<!-- 4.3 BSD -->
<g id="node26" class="node">
<title>4.3 BSD</title>
<ellipse fill="#b2dfee" stroke="#b2dfee" cx="415.9" cy="-90" rx="41.69" ry="18"/>
<text text-anchor="middle" x="415.9" y="-86.3" font-family="Times,serif" font-size="14.00">4.3 BSD</text>
</g>
<!-- 4.2 BSD&#45;&gt;4.3 BSD -->
<g id="edge29" class="edge">
<title>4.2 BSD&#45;&gt;4.3 BSD</title>
<path fill="none" stroke="black" d="M355.99,-145.46C366.35,-136.04 379.76,-123.85 391.26,-113.4"/>
<polygon fill="black" stroke="black" points="393.81,-115.81 398.86,-106.49 389.1,-110.63 393.81,-115.81"/>
</g>
<!-- Ultrix&#45;32 -->
<g id="node27" class="node">
<title>Ultrix&#45;32</title>
<ellipse fill="#b2dfee" stroke="#b2dfee" cx="312.9" cy="-90" rx="43.59" ry="18"/>
<text text-anchor="middle" x="312.9" y="-86.3" font-family="Times,serif" font-size="14.00">Ultrix&#45;32</text>
</g>
<!-- 4.2 BSD&#45;&gt;Ultrix&#45;32 -->
<g id="edge30" class="edge">
<title>4.2 BSD&#45;&gt;Ultrix&#45;32</title>
<path fill="none" stroke="black" d="M332.6,-144.05C329.68,-136.18 326.13,-126.62 322.85,-117.79"/>
<polygon fill="black" stroke="black" points="326.08,-116.43 319.31,-108.28 319.51,-118.87 326.08,-116.43"/>
</g>
<!-- PWB 1.2&#45;&gt;PWB 2.0 -->
<g id="edge33" class="edge">
<title>PWB 1.2&#45;&gt;PWB 2.0</title>
<path fill="none" stroke="black" d="M643.82,-578.83C625.91,-568.3 601.28,-553.81 581.6,-542.24"/>
<polygon fill="black" stroke="black" points="583.34,-539.2 572.94,-537.14 579.79,-545.23 583.34,-539.2"/>
</g>
<!-- CB Unix 1 -->
<g id="node30" class="node">
<title>CB Unix 1</title>
<ellipse fill="#b2dfee" stroke="#b2dfee" cx="802.9" cy="-522" rx="49.29" ry="18"/>
<text text-anchor="middle" x="802.9" y="-518.3" font-family="Times,serif" font-size="14.00">CB Unix 1</text>
</g>
<!-- USG 1.0&#45;&gt;CB Unix 1 -->
<g id="edge34" class="edge">
<title>USG 1.0&#45;&gt;CB Unix 1</title>
<path fill="none" stroke="black" d="M779.4,-576.05C782.93,-568.09 787.22,-558.41 791.16,-549.51"/>
<polygon fill="black" stroke="black" points="794.4,-550.84 795.25,-540.28 788,-548 794.4,-550.84"/>
</g>
<!-- USG 2.0 -->
<g id="node31" class="node">
<title>USG 2.0</title>
<ellipse fill="#b2dfee" stroke="#b2dfee" cx="679.9" cy="-522" rx="42.49" ry="18"/>
<text text-anchor="middle" x="679.9" y="-518.3" font-family="Times,serif" font-size="14.00">USG 2.0</text>
</g>
<!-- USG 1.0&#45;&gt;USG 2.0 -->
<g id="edge35" class="edge">
<title>USG 1.0&#45;&gt;USG 2.0</title>
<path fill="none" stroke="black" d="M751.93,-577.81C739.03,-568 722.06,-555.08 707.83,-544.25"/>
<polygon fill="black" stroke="black" points="709.9,-541.43 699.82,-538.16 705.66,-547 709.9,-541.43"/>
</g>
<!-- CB Unix 2 -->
<g id="node32" class="node">
<title>CB Unix 2</title>
<ellipse fill="#b2dfee" stroke="#b2dfee" cx="838.9" cy="-450" rx="49.29" ry="18"/>
<text text-anchor="middle" x="838.9" y="-446.3" font-family="Times,serif" font-size="14.00">CB Unix 2</text>
</g>
<!-- CB Unix 1&#45;&gt;CB Unix 2 -->
<g id="edge36" class="edge">
<title>CB Unix 1&#45;&gt;CB Unix 2</title>
<path fill="none" stroke="black" d="M811.61,-504.05C815.81,-495.89 820.94,-485.91 825.62,-476.82"/>
<polygon fill="black" stroke="black" points="828.8,-478.28 830.26,-467.79 822.58,-475.08 828.8,-478.28"/>
</g>
<!-- USG 3.0 -->
<g id="node36" class="node">
<title>USG 3.0</title>
<ellipse fill="#b2dfee" stroke="#b2dfee" cx="601.9" cy="-450" rx="42.49" ry="18"/>
<text text-anchor="middle" x="601.9" y="-446.3" font-family="Times,serif" font-size="14.00">USG 3.0</text>
</g>
<!-- USG 2.0&#45;&gt;USG 3.0 -->
<g id="edge40" class="edge">
<title>USG 2.0&#45;&gt;USG 3.0</title>
<path fill="none" stroke="black" d="M662.59,-505.46C652.08,-496.04 638.51,-483.85 626.86,-473.4"/>
<polygon fill="black" stroke="black" points="628.94,-470.57 619.16,-466.49 624.26,-475.78 628.94,-470.57"/>
</g>
<!-- CB Unix 3 -->
<g id="node33" class="node">
<title>CB Unix 3</title>
<ellipse fill="#b2dfee" stroke="#b2dfee" cx="780.9" cy="-378" rx="49.29" ry="18"/>
<text text-anchor="middle" x="780.9" y="-374.3" font-family="Times,serif" font-size="14.00">CB Unix 3</text>
</g>
<!-- CB Unix 2&#45;&gt;CB Unix 3 -->
<g id="edge37" class="edge">
<title>CB Unix 2&#45;&gt;CB Unix 3</title>
<path fill="none" stroke="black" d="M825.15,-432.41C817.93,-423.69 808.94,-412.85 800.96,-403.21"/>
<polygon fill="black" stroke="black" points="803.62,-400.94 794.54,-395.47 798.23,-405.4 803.62,-400.94"/>
</g>
<!-- Unix/TS++ -->
<g id="node34" class="node">
<title>Unix/TS++</title>
<ellipse fill="#b2dfee" stroke="#b2dfee" cx="764.9" cy="-306" rx="51.99" ry="18"/>
<text text-anchor="middle" x="764.9" y="-302.3" font-family="Times,serif" font-size="14.00">Unix/TS++</text>
</g>
<!-- CB Unix 3&#45;&gt;Unix/TS++ -->
<g id="edge38" class="edge">
<title>CB Unix 3&#45;&gt;Unix/TS++</title>
<path fill="none" stroke="black" d="M777.02,-360.05C775.24,-352.26 773.09,-342.82 771.09,-334.08"/>
<polygon fill="black" stroke="black" points="774.49,-333.24 768.85,-324.28 767.66,-334.8 774.49,-333.24"/>
</g>
<!-- PDP&#45;11 Sys V -->
<g id="node35" class="node">
<title>PDP&#45;11 Sys V</title>
<ellipse fill="#b2dfee" stroke="#b2dfee" cx="896.9" cy="-306" rx="62.29" ry="18"/>
<text text-anchor="middle" x="896.9" y="-302.3" font-family="Times,serif" font-size="14.00">PDP&#45;11 Sys V</text>
</g>
<!-- CB Unix 3&#45;&gt;PDP&#45;11 Sys V -->
<g id="edge39" class="edge">
<title>CB Unix 3&#45;&gt;PDP&#45;11 Sys V</title>
<path fill="none" stroke="black" d="M805.21,-362.33C821.77,-352.33 843.93,-338.96 862.32,-327.87"/>
<polygon fill="black" stroke="black" points="864.25,-330.79 871,-322.63 860.63,-324.8 864.25,-330.79"/>
</g>
<!-- CB Unix 3&#45;&gt;TS 4.0 -->
<g id="edge46" class="edge">
<title>CB Unix 3&#45;&gt;TS 4.0</title>
<path fill="none" stroke="black" d="M751.05,-363.45C734.69,-354.52 715.44,-341.27 703.9,-324 691.66,-305.69 687.11,-280.92 685.51,-262.17"/>
<polygon fill="black" stroke="black" points="689.01,-261.94 684.89,-252.18 682.02,-262.38 689.01,-261.94"/>
</g>
<!-- Unix/TS++&#45;&gt;TS 4.0 -->
<g id="edge45" class="edge">
<title>Unix/TS++&#45;&gt;TS 4.0</title>
<path fill="none" stroke="black" d="M746.74,-289.12C735.7,-279.45 721.45,-266.99 709.42,-256.46"/>
<polygon fill="black" stroke="black" points="711.72,-253.81 701.88,-249.86 707.11,-259.08 711.72,-253.81"/>
</g>
<!-- USG 3.0&#45;&gt;Unix/TS 3.0 -->
<g id="edge41" class="edge">
<title>USG 3.0&#45;&gt;Unix/TS 3.0</title>
<path fill="none" stroke="black" d="M601.9,-431.7C601.9,-423.98 601.9,-414.71 601.9,-406.11"/>
<polygon fill="black" stroke="black" points="605.4,-406.1 601.9,-396.1 598.4,-406.1 605.4,-406.1"/>
</g>
<!-- Unix/TS 1.0 -->
<g id="node37" class="node">
<title>Unix/TS 1.0</title>
<ellipse fill="#b2dfee" stroke="#b2dfee" cx="716.9" cy="-450" rx="54.69" ry="18"/>
<text text-anchor="middle" x="716.9" y="-446.3" font-family="Times,serif" font-size="14.00">Unix/TS 1.0</text>
</g>
<!-- Unix/TS 1.0&#45;&gt;Unix/TS 3.0 -->
<g id="edge43" class="edge">
<title>Unix/TS 1.0&#45;&gt;Unix/TS 3.0</title>
<path fill="none" stroke="black" d="M691.94,-433.81C675.52,-423.81 653.81,-410.6 635.82,-399.65"/>
<polygon fill="black" stroke="black" points="637.16,-396.37 626.8,-394.16 633.52,-402.35 637.16,-396.37"/>
</g>
<!-- System V.0 -->
<g id="node39" class="node">
<title>System V.0</title>
<ellipse fill="#b2dfee" stroke="#b2dfee" cx="684.9" cy="-162" rx="51.19" ry="18"/>
<text text-anchor="middle" x="684.9" y="-158.3" font-family="Times,serif" font-size="14.00">System V.0</text>
</g>
<!-- TS 4.0&#45;&gt;System V.0 -->
<g id="edge47" class="edge">
<title>TS 4.0&#45;&gt;System V.0</title>
<path fill="none" stroke="black" d="M684.9,-215.7C684.9,-207.98 684.9,-198.71 684.9,-190.11"/>
<polygon fill="black" stroke="black" points="688.4,-190.1 684.9,-180.1 681.4,-190.1 688.4,-190.1"/>
</g>
<!-- System V.2 -->
<g id="node40" class="node">
<title>System V.2</title>
<ellipse fill="#b2dfee" stroke="#b2dfee" cx="684.9" cy="-90" rx="51.19" ry="18"/>
<text text-anchor="middle" x="684.9" y="-86.3" font-family="Times,serif" font-size="14.00">System V.2</text>
</g>
<!-- System V.0&#45;&gt;System V.2 -->
<g id="edge48" class="edge">
<title>System V.0&#45;&gt;System V.2</title>
<path fill="none" stroke="black" d="M684.9,-143.7C684.9,-135.98 684.9,-126.71 684.9,-118.11"/>
<polygon fill="black" stroke="black" points="688.4,-118.1 684.9,-108.1 681.4,-118.1 688.4,-118.1"/>
</g>
<!-- System V.3 -->
<g id="node41" class="node">
<title>System V.3</title>
<ellipse fill="#b2dfee" stroke="#b2dfee" cx="684.9" cy="-18" rx="51.19" ry="18"/>
<text text-anchor="middle" x="684.9" y="-14.3" font-family="Times,serif" font-size="14.00">System V.3</text>
</g>
<!-- System V.2&#45;&gt;System V.3 -->
<g id="edge49" class="edge">
<title>System V.2&#45;&gt;System V.3</title>
<path fill="none" stroke="black" d="M684.9,-71.7C684.9,-63.98 684.9,-54.71 684.9,-46.11"/>
<polygon fill="black" stroke="black" points="688.4,-46.1 684.9,-36.1 681.4,-46.1 688.4,-46.1"/>
</g>
</g>
</svg>
